<svg width="914" height="400" fill="none" xmlns="http://www.w3.org/2000/svg"><style>#CL0 {fill: #333;}#CL1 {fill: #555;}@media (prefers-color-scheme: dark) {#CL0 {fill: #CCC;}#CL1 {fill: #999;}}</style><path d="M425.986 212h-4.416v-19.605h4.416V212Zm14.096-.506c-.975.565-2.384.848-4.225.848-2.151 0-3.892-.652-5.222-1.955-1.331-1.304-1.996-2.985-1.996-5.045 0-2.379.71-4.252 2.132-5.619 1.431-1.377 3.341-2.065 5.729-2.065 1.65 0 2.844.219 3.582.656v3.665a4.923 4.923 0 0 0-3.022-1.012c-1.239 0-2.224.364-2.953 1.094-.72.72-1.08 1.718-1.08 2.994 0 1.239.347 2.215 1.039 2.925.693.702 1.645 1.053 2.858 1.053 1.075 0 2.128-.337 3.158-1.012v3.473Zm14.862-5.264h-9.133c.146 2.033 1.426 3.049 3.842 3.049 1.54 0 2.894-.364 4.06-1.093v3.117c-1.294.692-2.976 1.039-5.045 1.039-2.26 0-4.015-.625-5.263-1.873-1.249-1.258-1.873-3.008-1.873-5.25 0-2.324.674-4.166 2.023-5.524 1.349-1.358 3.008-2.037 4.977-2.037 2.041 0 3.618.606 4.73 1.819 1.121 1.212 1.682 2.857 1.682 4.935v1.818Zm-4.006-2.652c0-2.005-.811-3.008-2.434-3.008-.692 0-1.294.287-1.804.862-.502.574-.807 1.289-.916 2.146h5.154Z" id="CL0"/><path d="M474.218 211.275c-1.513.711-3.24 1.067-5.181 1.067-1.386 0-2.644-.242-3.774-.725a8.548 8.548 0 0 1-2.898-2.037c-.793-.866-1.408-1.896-1.846-3.09-.428-1.194-.642-2.497-.642-3.91 0-1.486.227-2.866.683-4.142.465-1.286 1.126-2.398 1.983-3.336a9.1 9.1 0 0 1 3.103-2.229c1.221-.538 2.589-.807 4.102-.807 1.668 0 3.158.256 4.47.766v1.941a9.93 9.93 0 0 0-4.498-1.052c-1.267 0-2.392.218-3.377.656a6.964 6.964 0 0 0-2.488 1.832c-.674.775-1.189 1.695-1.545 2.762-.355 1.057-.533 2.215-.533 3.472 0 1.131.159 2.197.478 3.2a7.756 7.756 0 0 0 1.409 2.611 6.781 6.781 0 0 0 2.338 1.777c.929.438 2.009.657 3.24.657 1.887 0 3.545-.397 4.976-1.19v1.777Zm3.624.725v-19.605h1.818v17.951h7.875V212h-9.693Zm14.274 0h-1.818v-19.605h1.818V212Z" id="CL1"/></svg>